<mxfile host="app.diagrams.net" agent="Mozilla/5.0 (Windows NT 10.0; Win64; x64) AppleWebKit/537.36 (KHTML, like Gecko) Chrome/128.0.0.0 Safari/537.36" version="24.7.10">
  <diagram name="Page-1" id="yOH8A7QZOXRddQm8HliX">
    <mxGraphModel dx="2963" dy="1580" grid="1" gridSize="10" guides="1" tooltips="1" connect="1" arrows="1" fold="1" page="1" pageScale="1" pageWidth="850" pageHeight="1100" math="0" shadow="0">
      <root>
        <mxCell id="0" />
        <mxCell id="1" parent="0" />
        <mxCell id="Na4UoijEdOag5fVv1NSn-1" value="Item List" style="shape=parallelogram;perimeter=parallelogramPerimeter;whiteSpace=wrap;html=1;fixedSize=1;fontStyle=1" vertex="1" parent="1">
          <mxGeometry x="180" y="30" width="120" height="60" as="geometry" />
        </mxCell>
        <mxCell id="Na4UoijEdOag5fVv1NSn-13" value="" style="edgeStyle=orthogonalEdgeStyle;rounded=0;orthogonalLoop=1;jettySize=auto;html=1;" edge="1" parent="1" source="Na4UoijEdOag5fVv1NSn-5" target="Na4UoijEdOag5fVv1NSn-6">
          <mxGeometry relative="1" as="geometry" />
        </mxCell>
        <mxCell id="Na4UoijEdOag5fVv1NSn-5" value="Start" style="ellipse;whiteSpace=wrap;html=1;fillColor=#d5e8d4;strokeColor=#82b366;" vertex="1" parent="1">
          <mxGeometry x="180" y="210" width="120" height="80" as="geometry" />
        </mxCell>
        <mxCell id="Na4UoijEdOag5fVv1NSn-14" value="" style="edgeStyle=orthogonalEdgeStyle;rounded=0;orthogonalLoop=1;jettySize=auto;html=1;" edge="1" parent="1" source="Na4UoijEdOag5fVv1NSn-6" target="Na4UoijEdOag5fVv1NSn-7">
          <mxGeometry relative="1" as="geometry" />
        </mxCell>
        <mxCell id="Na4UoijEdOag5fVv1NSn-6" value="Set End of Range to last item in Item List" style="rounded=1;whiteSpace=wrap;html=1;" vertex="1" parent="1">
          <mxGeometry x="180" y="330" width="120" height="60" as="geometry" />
        </mxCell>
        <mxCell id="Na4UoijEdOag5fVv1NSn-47" value="" style="edgeStyle=orthogonalEdgeStyle;rounded=0;orthogonalLoop=1;jettySize=auto;html=1;" edge="1" parent="1" source="Na4UoijEdOag5fVv1NSn-7" target="Na4UoijEdOag5fVv1NSn-45">
          <mxGeometry relative="1" as="geometry" />
        </mxCell>
        <mxCell id="Na4UoijEdOag5fVv1NSn-7" value="Set Pass Counter to length of list-1" style="rounded=1;whiteSpace=wrap;html=1;" vertex="1" parent="1">
          <mxGeometry x="180" y="430" width="120" height="60" as="geometry" />
        </mxCell>
        <mxCell id="Na4UoijEdOag5fVv1NSn-16" value="No" style="edgeStyle=orthogonalEdgeStyle;rounded=0;orthogonalLoop=1;jettySize=auto;html=1;" edge="1" parent="1" source="Na4UoijEdOag5fVv1NSn-11">
          <mxGeometry relative="1" as="geometry">
            <mxPoint x="390" y="900" as="targetPoint" />
          </mxGeometry>
        </mxCell>
        <mxCell id="Na4UoijEdOag5fVv1NSn-18" value="Yes" style="edgeStyle=orthogonalEdgeStyle;rounded=0;orthogonalLoop=1;jettySize=auto;html=1;" edge="1" parent="1" source="Na4UoijEdOag5fVv1NSn-11" target="Na4UoijEdOag5fVv1NSn-17">
          <mxGeometry relative="1" as="geometry" />
        </mxCell>
        <mxCell id="Na4UoijEdOag5fVv1NSn-11" value="is Pass Counter&amp;gt;0?" style="rhombus;whiteSpace=wrap;html=1;sketch=0;pointerEvents=1;resizable=1;rounded=1;arcSize=0;movable=1;rotatable=1;deletable=1;editable=1;locked=0;connectable=1;" vertex="1" parent="1">
          <mxGeometry x="190" y="860" width="100" height="80" as="geometry" />
        </mxCell>
        <mxCell id="Na4UoijEdOag5fVv1NSn-55" value="" style="edgeStyle=orthogonalEdgeStyle;rounded=0;orthogonalLoop=1;jettySize=auto;html=1;exitX=0.845;exitY=0.798;exitDx=0;exitDy=0;exitPerimeter=0;entryX=0;entryY=0.5;entryDx=0;entryDy=0;" edge="1" parent="1" source="Na4UoijEdOag5fVv1NSn-54" target="Na4UoijEdOag5fVv1NSn-15">
          <mxGeometry relative="1" as="geometry">
            <mxPoint x="530" y="830" as="targetPoint" />
          </mxGeometry>
        </mxCell>
        <mxCell id="Na4UoijEdOag5fVv1NSn-15" value="End" style="ellipse;whiteSpace=wrap;html=1;sketch=0;pointerEvents=1;resizable=1;rounded=1;arcSize=0;fillColor=#f8cecc;strokeColor=#b85450;" vertex="1" parent="1">
          <mxGeometry x="460" y="860" width="120" height="80" as="geometry" />
        </mxCell>
        <mxCell id="Na4UoijEdOag5fVv1NSn-20" value="" style="edgeStyle=orthogonalEdgeStyle;rounded=0;orthogonalLoop=1;jettySize=auto;html=1;" edge="1" parent="1" source="Na4UoijEdOag5fVv1NSn-17" target="Na4UoijEdOag5fVv1NSn-19">
          <mxGeometry relative="1" as="geometry" />
        </mxCell>
        <mxCell id="Na4UoijEdOag5fVv1NSn-17" value="Set Current Item to first item in Item List" style="rounded=1;whiteSpace=wrap;html=1;sketch=0;pointerEvents=1;resizable=1;arcSize=17;" vertex="1" parent="1">
          <mxGeometry x="180" y="980" width="120" height="60" as="geometry" />
        </mxCell>
        <mxCell id="Na4UoijEdOag5fVv1NSn-22" value="" style="edgeStyle=orthogonalEdgeStyle;rounded=0;orthogonalLoop=1;jettySize=auto;html=1;" edge="1" parent="1" source="Na4UoijEdOag5fVv1NSn-19" target="Na4UoijEdOag5fVv1NSn-21">
          <mxGeometry relative="1" as="geometry" />
        </mxCell>
        <mxCell id="Na4UoijEdOag5fVv1NSn-19" value="" style="shape=waypoint;sketch=0;size=6;pointerEvents=1;points=[];fillColor=default;resizable=1;rotatable=0;perimeter=centerPerimeter;snapToPoint=1;rounded=1;arcSize=17;" vertex="1" parent="1">
          <mxGeometry x="230" y="1140" width="20" height="20" as="geometry" />
        </mxCell>
        <mxCell id="Na4UoijEdOag5fVv1NSn-24" value="Yes" style="edgeStyle=orthogonalEdgeStyle;rounded=0;orthogonalLoop=1;jettySize=auto;html=1;" edge="1" parent="1" source="Na4UoijEdOag5fVv1NSn-21" target="Na4UoijEdOag5fVv1NSn-23">
          <mxGeometry relative="1" as="geometry" />
        </mxCell>
        <mxCell id="Na4UoijEdOag5fVv1NSn-29" value="No" style="edgeStyle=orthogonalEdgeStyle;rounded=0;orthogonalLoop=1;jettySize=auto;html=1;" edge="1" parent="1" source="Na4UoijEdOag5fVv1NSn-21" target="Na4UoijEdOag5fVv1NSn-28">
          <mxGeometry relative="1" as="geometry" />
        </mxCell>
        <mxCell id="Na4UoijEdOag5fVv1NSn-21" value="Is Current &lt;br&gt;Item the End of Range?" style="rhombus;whiteSpace=wrap;html=1;sketch=0;pointerEvents=1;resizable=1;rounded=1;arcSize=0;" vertex="1" parent="1">
          <mxGeometry x="185" y="1300" width="110" height="80" as="geometry" />
        </mxCell>
        <mxCell id="Na4UoijEdOag5fVv1NSn-26" value="" style="edgeStyle=orthogonalEdgeStyle;rounded=0;orthogonalLoop=1;jettySize=auto;html=1;" edge="1" parent="1" source="Na4UoijEdOag5fVv1NSn-23" target="Na4UoijEdOag5fVv1NSn-25">
          <mxGeometry relative="1" as="geometry" />
        </mxCell>
        <mxCell id="Na4UoijEdOag5fVv1NSn-23" value="Subtract 1 from Pass Counter" style="rounded=1;whiteSpace=wrap;html=1;sketch=0;pointerEvents=1;resizable=1;arcSize=21;" vertex="1" parent="1">
          <mxGeometry x="180" y="1470" width="120" height="60" as="geometry" />
        </mxCell>
        <mxCell id="Na4UoijEdOag5fVv1NSn-25" value="Set End of Rance one item closer to start of list" style="rounded=1;whiteSpace=wrap;html=1;sketch=0;pointerEvents=1;resizable=1;arcSize=21;" vertex="1" parent="1">
          <mxGeometry x="180" y="1610" width="120" height="60" as="geometry" />
        </mxCell>
        <mxCell id="Na4UoijEdOag5fVv1NSn-27" style="edgeStyle=orthogonalEdgeStyle;rounded=0;orthogonalLoop=1;jettySize=auto;html=1;exitX=0;exitY=0.5;exitDx=0;exitDy=0;entryX=0.29;entryY=0.483;entryDx=0;entryDy=0;entryPerimeter=0;" edge="1" parent="1" source="Na4UoijEdOag5fVv1NSn-25" target="Na4UoijEdOag5fVv1NSn-49">
          <mxGeometry relative="1" as="geometry">
            <mxPoint x="240" y="680" as="targetPoint" />
            <Array as="points">
              <mxPoint x="70" y="1640" />
              <mxPoint x="70" y="680" />
            </Array>
          </mxGeometry>
        </mxCell>
        <mxCell id="Na4UoijEdOag5fVv1NSn-31" value="" style="edgeStyle=orthogonalEdgeStyle;rounded=0;orthogonalLoop=1;jettySize=auto;html=1;" edge="1" parent="1" source="Na4UoijEdOag5fVv1NSn-28" target="Na4UoijEdOag5fVv1NSn-52">
          <mxGeometry relative="1" as="geometry" />
        </mxCell>
        <mxCell id="Na4UoijEdOag5fVv1NSn-28" value="Set Next Item to item after Current Item in Item List" style="whiteSpace=wrap;html=1;sketch=0;pointerEvents=1;resizable=1;rounded=1;arcSize=19;" vertex="1" parent="1">
          <mxGeometry x="340" y="1310" width="120" height="60" as="geometry" />
        </mxCell>
        <mxCell id="Na4UoijEdOag5fVv1NSn-33" value="Yes" style="edgeStyle=orthogonalEdgeStyle;rounded=0;orthogonalLoop=1;jettySize=auto;html=1;" edge="1" parent="1" source="Na4UoijEdOag5fVv1NSn-30" target="Na4UoijEdOag5fVv1NSn-32">
          <mxGeometry relative="1" as="geometry" />
        </mxCell>
        <mxCell id="Na4UoijEdOag5fVv1NSn-35" value="No" style="edgeStyle=orthogonalEdgeStyle;rounded=0;orthogonalLoop=1;jettySize=auto;html=1;" edge="1" parent="1" source="Na4UoijEdOag5fVv1NSn-30" target="Na4UoijEdOag5fVv1NSn-34">
          <mxGeometry relative="1" as="geometry" />
        </mxCell>
        <mxCell id="Na4UoijEdOag5fVv1NSn-30" value="Does Current Item&lt;br&gt;&amp;nbsp;need to be swapped with Next Item" style="rhombus;whiteSpace=wrap;html=1;sketch=0;pointerEvents=1;resizable=1;rounded=1;arcSize=0;" vertex="1" parent="1">
          <mxGeometry x="425" y="1480" width="160" height="90" as="geometry" />
        </mxCell>
        <mxCell id="Na4UoijEdOag5fVv1NSn-42" value="" style="edgeStyle=orthogonalEdgeStyle;rounded=0;orthogonalLoop=1;jettySize=auto;html=1;entryX=0.5;entryY=0;entryDx=0;entryDy=0;" edge="1" parent="1" source="Na4UoijEdOag5fVv1NSn-32" target="Na4UoijEdOag5fVv1NSn-43">
          <mxGeometry relative="1" as="geometry">
            <mxPoint x="665" y="1610" as="targetPoint" />
          </mxGeometry>
        </mxCell>
        <mxCell id="Na4UoijEdOag5fVv1NSn-32" value="Swap Current Item and Next Item" style="whiteSpace=wrap;html=1;sketch=0;pointerEvents=1;resizable=1;rounded=1;arcSize=16;" vertex="1" parent="1">
          <mxGeometry x="685" y="1495" width="120" height="60" as="geometry" />
        </mxCell>
        <mxCell id="Na4UoijEdOag5fVv1NSn-38" style="edgeStyle=orthogonalEdgeStyle;rounded=0;orthogonalLoop=1;jettySize=auto;html=1;exitX=1;exitY=0.5;exitDx=0;exitDy=0;entryX=0.475;entryY=0.733;entryDx=0;entryDy=0;entryPerimeter=0;" edge="1" parent="1" source="Na4UoijEdOag5fVv1NSn-34" target="Na4UoijEdOag5fVv1NSn-36">
          <mxGeometry relative="1" as="geometry" />
        </mxCell>
        <mxCell id="Na4UoijEdOag5fVv1NSn-34" value="Set Current Item to Next Item" style="whiteSpace=wrap;html=1;sketch=0;pointerEvents=1;resizable=1;rounded=1;arcSize=13;" vertex="1" parent="1">
          <mxGeometry x="445" y="1665" width="120" height="60" as="geometry" />
        </mxCell>
        <mxCell id="Na4UoijEdOag5fVv1NSn-40" value="" style="edgeStyle=orthogonalEdgeStyle;rounded=0;orthogonalLoop=1;jettySize=auto;html=1;" edge="1" parent="1" source="Na4UoijEdOag5fVv1NSn-36" target="Na4UoijEdOag5fVv1NSn-19">
          <mxGeometry relative="1" as="geometry">
            <mxPoint x="740" y="1535" as="targetPoint" />
            <Array as="points">
              <mxPoint x="830" y="1695" />
              <mxPoint x="830" y="1150" />
            </Array>
          </mxGeometry>
        </mxCell>
        <mxCell id="Na4UoijEdOag5fVv1NSn-36" value="" style="shape=waypoint;sketch=0;size=6;pointerEvents=1;points=[];fillColor=default;resizable=1;rotatable=0;perimeter=centerPerimeter;snapToPoint=1;rounded=1;arcSize=16;" vertex="1" parent="1">
          <mxGeometry x="735" y="1685" width="20" height="20" as="geometry" />
        </mxCell>
        <mxCell id="Na4UoijEdOag5fVv1NSn-44" value="" style="edgeStyle=orthogonalEdgeStyle;rounded=0;orthogonalLoop=1;jettySize=auto;html=1;" edge="1" parent="1" source="Na4UoijEdOag5fVv1NSn-43" target="Na4UoijEdOag5fVv1NSn-36">
          <mxGeometry relative="1" as="geometry" />
        </mxCell>
        <mxCell id="Na4UoijEdOag5fVv1NSn-43" value="Set Swap &lt;br&gt;Counter to 1" style="rounded=1;whiteSpace=wrap;html=1;" vertex="1" parent="1">
          <mxGeometry x="685" y="1590" width="120" height="60" as="geometry" />
        </mxCell>
        <mxCell id="Na4UoijEdOag5fVv1NSn-50" value="" style="edgeStyle=orthogonalEdgeStyle;rounded=0;orthogonalLoop=1;jettySize=auto;html=1;" edge="1" parent="1" source="Na4UoijEdOag5fVv1NSn-45" target="Na4UoijEdOag5fVv1NSn-49">
          <mxGeometry relative="1" as="geometry" />
        </mxCell>
        <mxCell id="Na4UoijEdOag5fVv1NSn-45" value="Set Swap &lt;br&gt;Counter to 1" style="rounded=1;whiteSpace=wrap;html=1;" vertex="1" parent="1">
          <mxGeometry x="180" y="560" width="120" height="60" as="geometry" />
        </mxCell>
        <mxCell id="Na4UoijEdOag5fVv1NSn-57" value="" style="edgeStyle=orthogonalEdgeStyle;rounded=0;orthogonalLoop=1;jettySize=auto;html=1;" edge="1" parent="1" source="Na4UoijEdOag5fVv1NSn-49" target="Na4UoijEdOag5fVv1NSn-56">
          <mxGeometry relative="1" as="geometry" />
        </mxCell>
        <mxCell id="Na4UoijEdOag5fVv1NSn-49" value="" style="shape=waypoint;sketch=0;size=6;pointerEvents=1;points=[];fillColor=default;resizable=0;rotatable=0;perimeter=centerPerimeter;snapToPoint=1;rounded=1;" vertex="1" parent="1">
          <mxGeometry x="230" y="670" width="20" height="20" as="geometry" />
        </mxCell>
        <mxCell id="Na4UoijEdOag5fVv1NSn-53" style="edgeStyle=orthogonalEdgeStyle;rounded=0;orthogonalLoop=1;jettySize=auto;html=1;exitX=1;exitY=0.5;exitDx=0;exitDy=0;" edge="1" parent="1" source="Na4UoijEdOag5fVv1NSn-52" target="Na4UoijEdOag5fVv1NSn-30">
          <mxGeometry relative="1" as="geometry" />
        </mxCell>
        <mxCell id="Na4UoijEdOag5fVv1NSn-52" value="Set Swap &lt;br&gt;Counter to 0" style="rounded=1;whiteSpace=wrap;html=1;" vertex="1" parent="1">
          <mxGeometry x="340" y="1410" width="120" height="60" as="geometry" />
        </mxCell>
        <mxCell id="Na4UoijEdOag5fVv1NSn-54" value="" style="shape=waypoint;sketch=0;size=6;pointerEvents=1;points=[];resizable=1;rotatable=0;perimeter=centerPerimeter;snapToPoint=1;rounded=1;arcSize=0;" vertex="1" parent="1">
          <mxGeometry x="380" y="890" width="20" height="20" as="geometry" />
        </mxCell>
        <mxCell id="Na4UoijEdOag5fVv1NSn-58" value="No" style="edgeStyle=orthogonalEdgeStyle;rounded=0;orthogonalLoop=1;jettySize=auto;html=1;" edge="1" parent="1" source="Na4UoijEdOag5fVv1NSn-56" target="Na4UoijEdOag5fVv1NSn-11">
          <mxGeometry relative="1" as="geometry" />
        </mxCell>
        <mxCell id="Na4UoijEdOag5fVv1NSn-56" value="is Swap Counter 0?" style="rhombus;whiteSpace=wrap;html=1;" vertex="1" parent="1">
          <mxGeometry x="200" y="730" width="80" height="80" as="geometry" />
        </mxCell>
        <mxCell id="Na4UoijEdOag5fVv1NSn-59" value="Yes" style="edgeStyle=orthogonalEdgeStyle;rounded=0;orthogonalLoop=1;jettySize=auto;html=1;exitX=1;exitY=0.5;exitDx=0;exitDy=0;entryX=0.707;entryY=0.798;entryDx=0;entryDy=0;entryPerimeter=0;" edge="1" parent="1" source="Na4UoijEdOag5fVv1NSn-56" target="Na4UoijEdOag5fVv1NSn-54">
          <mxGeometry x="-0.8333" relative="1" as="geometry">
            <mxPoint as="offset" />
          </mxGeometry>
        </mxCell>
      </root>
    </mxGraphModel>
  </diagram>
</mxfile>
